<svg height="250px" fill="#88888833" viewBox="0 0 511.99958 511" width="250px" xmlns="http://www.w3.org/2000/svg"><path d="m511.972656 40.214844c.207032-2.484375-.816406-4.910156-2.734375-6.496094s-4.496093-2.136719-6.890625-1.46875c-26.914062 7.480469-66.839844 6.429688-122.058594-3.207031-42.121093-7.355469-61.304687 24.546875-76.722656 50.175781-7.648437 12.714844-14.5 24.089844-22.480468 28.695312v-16.605468c14.609374-8.402344 24.472656-24.15625 24.472656-42.179688 0-26.8125-21.8125-48.628906-48.628906-48.628906-26.8125 0-48.628907 21.816406-48.628907 48.628906 0 18.027344 9.867188 33.785156 24.480469 42.183594v17.539062c-8.796875-3.796874-16.109375-15.941406-24.351562-29.636718-15.417969-25.628906-34.601563-57.527344-76.71875-50.171875-11.242188 1.964843-21.96875 3.589843-31.878907 4.828125-4.171875.519531-7.132812 4.324218-6.613281 8.5.523438 4.171875 4.324219 7.128906 8.503906 6.609375 10.152344-1.269531 21.125-2.929688 32.609375-4.9375 31.8125-5.554688 46.019531 18.042969 61.050781 43.023437 10.65625 17.714844 20.789063 34.535156 37.398438 37.710938v37.449218c-5.175781 3.988282-10.277344 7.09375-15.265625 9.285157.964844-7.394531.359375-14.925781-1.929687-21.792969-4.417969-13.242188-25.371094-20.773438-47.710938-17.148438-10.628906 1.726563-39.964844 9.648438-52.460938 44.628907-10.835937-.28125-21.140624-3.828125-28.699218-7.285157 18.066406-11.203124 32.304687-29.332031 33.046875-30.285156 2.089843-2.6875 2.144531-6.429687.136719-9.171875-2.011719-2.746093-5.59375-3.824219-8.78125-2.648437-39.988282 14.765625-63.585938.5-74.855469-10.609375 30.746093-4.210938 51.707031-20.078125 52.710937-20.855469 2.679688-2.058594 3.679688-5.636719 2.457032-8.789062-1.222657-3.148438-4.359376-5.117188-7.742188-4.832032-44.910156 3.796875-60.472656-18.863281-65.792969-33.03125 14.910157 2.628906 32.398438 3.335938 53.035157 2.167969 4.199218-.238281 7.410156-3.832031 7.171874-8.03125-.238281-4.199219-3.867187-7.414063-8.03125-7.171875-24.582031 1.390625-44.90625-.089844-60.414062-4.402344-2.398438-.667968-4.972656-.121094-6.894531 1.464844-1.917969 1.585938-2.941407 4.011719-2.7343752 6.496094.0820312.996094 2.2421872 24.621094 22.2929682 41.582031 9.011719 7.625 20.058594 12.636719 33.011719 15.003906-9.398437 3.414063-21.003906 6.191407-33.898437 6.191407-2.683594 0-5.167969 1.410156-6.542969 3.71875-1.371094 2.304687-1.429687 5.160156-.152344 7.519531.308594.574219 7.753907 14.082031 24.132813 24.164062 16.90625 10.402344 34.921875 12.199219 51.03125 10.257813-6.792969 5.796875-14.59375 11.148437-22.085938 13.53125-2.757812.878906-4.777344 3.242187-5.21875 6.101562-.4375 2.859375.78125 5.722656 3.152344 7.386719.960938.671875 21.21875 14.703125 45.726562 16.570313-1.171874 6.582031-1.828124 13.875-1.828124 21.96875 0 32.316406 18.125 56.386718 55.261718 73.269531-31.722656 21.804687-32.796875 49.566406-27.351562 70.101562 5.066406 19.078125 26.628906 38.011719 58.578125 51.917969-6 6.164062-9.742188 12.917969-11.324219 20.4375-6.429688 30.5 15.410156 51.796875 27.859375 58.800781 1.171875.65625 2.457031.976563 3.730469.976563 2.074218 0 4.125-.847656 5.605468-2.457032 2.390626-2.601562 2.683594-6.503906.699219-9.429687-4.203125-6.207031-5.570312-12.332031-4.058593-18.199219 1.609374-6.242187 6.4375-12.3125 14.132812-17.890625v45.886719c0 13.316406 10.832031 24.152344 24.152344 24.152344 13.316406 0 24.152344-10.835938 24.152344-24.152344v-45.859375c7.148437 5.1875 11.855468 10.816406 13.757812 16.632813 2.046875 6.253906.800781 12.792968-3.695312 19.429687-1.980469 2.925781-1.691407 6.828125.699218 9.425781 1.484375 1.613282 3.53125 2.460938 5.605469 2.460938 1.277344 0 2.5625-.320313 3.730469-.976563 12.449218-7.003906 34.289062-28.300781 27.859375-58.804687-1.589844-7.519532-5.332031-14.273438-11.320313-20.425782 14.234375-6.167968 26.351563-13.292968 36.113282-21.273437 3.253906-2.660156 3.738281-7.457031 1.078124-10.714844-2.664062-3.253906-7.457031-3.738281-10.714843-1.074219-10.367188 8.46875-23.902344 15.949219-40.269531 22.261719-5.101563-3.15625-11.0625-6.203125-18.128907-9.25-1.554687-.667969-3.132812-1.316406-4.714843-1.957031v-.804688c30-10.324218 55.605468-21.636718 55.605468-44.867187 0-27.222656-39.738281-35.703125-78.167968-43.902344l-6.304688-1.339843c-10.566406-2.242188-21.492188-4.5625-32.3125-7.191407-13.792969-3.351562-25.320312-6.726562-35.246094-10.320312-.070312-.023438-.140625-.050781-.214844-.074219-40.636718-14.738281-59.566406-35.332031-59.566406-64.785156 0-53.457032 31.773438-64.390625 45.4375-66.609375 16.511719-2.6875 29.527344 3.046875 30.824219 6.929687 3.160156 9.492188 1.628906 20.914063-4 29.804688-6.257813 9.882812-17.007813 16.007812-31.085937 17.714844-2.136719.261718-4.066407 1.414062-5.304688 3.171874-.695312.980469-6.621094 9.945313-1.625 22.171876 8.121094 19.871093 40.566406 35.121093 96.460938 45.335937 2.792968.503906 5.667968 1.007813 8.625 1.5 12.910156 2.152344 24.71875 4.769531 35.101562 7.773437 27.449219 7.929688 46.363281 18.804688 56.207031 32.324219 8.136719 11.175781 10.117188 24.046875 6.058594 39.347657-.214844.800781-.5 1.660156-.847656 2.542968-1.546875 3.914063.371093 8.335938 4.285156 9.878906 3.910156 1.546876 8.335937-.371093 9.878906-4.285156.566407-1.4375 1.039063-2.859375 1.402344-4.234375 5.738281-21.621093 3.808594-48.75-27.359375-70.097656 37.144531-16.882813 55.269531-40.957031 55.269531-73.273437 0-8.164063-.664062-15.511719-1.851562-22.136719 23.6875-2.394531 42.980469-15.761719 43.898437-16.402344 2.367188-1.664063 3.585938-4.527344 3.148438-7.386719-.441406-2.859375-2.460938-5.222656-5.21875-6.101562-7.753906-2.464844-15.535156-7.867188-22.144532-13.539063 16.125 1.953125 34.164063.160157 51.085938-10.253906 16.382812-10.078125 23.828125-23.589844 24.136719-24.160156 1.277343-2.359375 1.21875-5.214844-.152344-7.523438-1.375-2.304687-3.859375-3.71875-6.542969-3.71875-12.898437 0-24.503906-2.777343-33.898437-6.191406 12.953125-2.367187 24-7.375 33.011719-15.003906 20.050781-16.957031 22.210937-40.582031 22.292968-41.578125zm-308.070312 415.617187c-.203125.789063-.375 1.582031-.523438 2.375-3.621094-6.578125-5.804687-14.988281-3.667968-25.125 1.324218-6.285156 5.378906-12 12.347656-17.386719 6.410156 2.238282 13.136718 4.3125 20.070312 6.152344.214844.058594.4375.113282.652344.171875v1.695313c-15.980469 8.988281-25.699219 19.773437-28.878906 32.117187zm61.957031 31.792969c0 4.921875-4.003906 8.925781-8.925781 8.925781s-8.921875-4.003906-8.921875-8.925781v-61.351562c2.175781.691406 4.3125 1.390624 6.359375 2.125 4.105468 1.464843 7.9375 3.023437 11.488281 4.65625zm55.605469-145.792969c0 12.257813-18.535156 20.9375-40.378906 28.726563v-51.90625c21.527343 5.449218 40.378906 12.496094 40.378906 23.179687zm-66.121094-29.011719c3.429688.734376 6.960938 1.488282 10.515625 2.269532v60.671875c-.679687.230469-1.363281.457031-2.042969.683593-2.289062.761719-4.585937 1.53125-6.882812 2.304688-2.511719-.847656-5.03125-1.691406-7.53125-2.523438-.46875-.15625-.925782-.3125-1.390625-.464843v-64.5c.34375.074219.699219.152343 1.046875.226562zm-22.5625 57.746094c-22.257812-7.914062-40.386719-16.472656-40.386719-28.734375 0-6.359375 5.066407-14.015625 40.386719-23.125zm-10.339844-64.921875c-24.660156 6.792969-45.277344 16.402344-45.277344 36.191407 0 26.171874 33.714844 37.515624 60.808594 46.628906 2.1875.738281 4.398438 1.472656 6.621094 2.210937 3.285156 1.09375 6.597656 2.195313 9.890625 3.3125 7.824219 2.664063 16.949219 5.867188 25.292969 9.460938 7.78125 3.355469 13.980468 6.636719 18.964844 10.03125 8.851562 6.027343 13.890624 12.441406 15.40625 19.601562 2.136718 10.140625-.046876 18.546875-3.667969 25.128907-.28125-1.519532-.667969-3.035157-1.160157-4.539063-5.28125-16.152344-22.507812-29.851563-49.824218-39.613281-6.171875-2.207032-12.890625-4.230469-19.953125-6.015625-1.160157-.296875-2.316407-.59375-3.476563-.90625-7.90625-2.097657-15.511718-4.484375-22.605468-7.097657-.070313-.023437-.144532-.050781-.214844-.074218-39.816406-14.648438-57.726563-34.082032-60.964844-46.285156-6.695312-25.253907 3.238281-44.632813 30.363281-59.167969 9.707031 3.367187 20.75 6.546875 33.667969 9.683593 2.042969.496094 4.085938.972657 6.128906 1.449219zm81.40625-113.167969c5.71875 9.039063 16.800782 20.222657 37.550782 24.007813.175781 1.351563.078124 3.167969-.828126 5.308594-6.324218 14.925781-38.828124 25.296875-59.484374 30.496093v-70.519531c7.105468 4.050781 14.1875 6.734375 21.191406 8.027344.5.910156 1.019531 1.804687 1.570312 2.679687zm-46.917968-176.746093c18.417968 0 33.402343 14.984375 33.402343 33.398437 0 18.417969-14.984375 33.402344-33.402343 33.402344-18.417969 0-33.398438-14.984375-33.398438-33.402344 0-18.414062 14.980469-33.398437 33.398438-33.398437zm-83.539063 206.292969c-1-2.242188-1.113281-4.136719-.929687-5.542969 20.742187-3.78125 31.828124-14.960938 37.546874-23.996094.636719-1.011719 1.226563-2.050781 1.789063-3.105469 6.9375-1.550781 13.957031-4.464844 20.984375-8.707031v71.640625c-46.039062-11.453125-56.859375-24.605469-59.390625-30.289062zm84.914063 35.726562c-3.582032-.652344-7.007813-1.320312-10.292969-1.996094v-157.777344h17.847656v161.089844c-2.585937-.433594-5.117187-.875-7.554687-1.316406zm73.859374 20.222656c-8.175781-3.863281-17.652343-7.425781-28.621093-10.59375-3.171875-.917968-6.476563-1.796875-9.882813-2.640625 34.695313-9.699219 55.28125-22.386719 61.265625-37.820312 4.644531-11.992188-1.140625-20.734375-1.816406-21.691407-1.242187-1.757812-3.167969-2.910156-5.304687-3.171874-14.082032-1.707032-24.832032-7.832032-31.085938-17.71875-5.625-8.890626-7.15625-20.308594-3.992188-29.796876.371094-1.109374 2.683594-3.722656 8.785157-5.679687 6.347656-2.039063 14.371093-2.496094 22.019531-1.257813 13.664062 2.21875 45.449219 13.144532 45.449219 66.613282 0 28.777344-18.082031 49.09375-56.816407 63.757812zm147.683594-207.804687c-12.0625 10.203125-29.394531 14.425781-51.535156 12.554687-3.378906-.28125-6.519531 1.683594-7.738281 4.832032-1.222657 3.152343-.222657 6.730468 2.453125 8.789062 1.007812.773438 21.964844 16.644531 52.710937 20.855469-11.277343 11.121093-34.878906 25.367187-74.851562 10.609375-3.191407-1.179688-6.777344-.097656-8.78125 2.648437-2.007813 2.742188-1.953125 6.484375.132812 9.171875.742188.953125 14.980469 19.082032 33.050781 30.285156-7.132812 3.261719-16.710937 6.597657-26.875 7.195313-12.515624-34.910156-41.820312-42.820313-52.445312-44.542969-22.320312-3.617187-43.273438 3.914063-47.6875 17.15625-2.371094 7.117188-2.925781 14.949219-1.804688 22.609375-5.023437-1.976562-10.164062-4.882812-15.390624-8.703125v-39.3125c15.625-4.179687 25.722656-20.949218 35.527343-37.246094 15.03125-24.984374 29.238281-48.582031 61.058594-43.027343 49.835937 8.699219 88.121094 10.566406 116.414063 5.636719-2.316407 6.179687-6.554688 13.988281-14.238282 20.488281zm0 0"/><path d="m159.339844 173.363281c3.761718 5.722657 12.84375 3.574219 13.863281-3.109375 1.058594-6.949218-7.558594-11.476562-12.699219-6.703125-2.691406 2.5-3.238281 6.746094-1.164062 9.8125zm0 0"/><path d="m355.214844 166.226562c-1.175782-2.941406-4.25-4.851562-7.402344-4.691406-3.183594.164063-5.976562 2.347656-6.910156 5.390625-.921875 3 .175781 6.398438 2.6875 8.28125 2.617187 1.960938 6.257812 2.039063 8.949218.175781 2.882813-2.003906 4.050782-5.90625 2.675782-9.15625zm0 0"/></svg>